<?xml version="1.0" encoding="UTF-8"?>
<svg version="1.1" xmlns="http://www.w3.org/2000/svg" width="604" height="472">
<path d="M0 0 C199.32 0 398.64 0 604 0 C604 155.76 604 311.52 604 472 C404.68 472 205.36 472 0 472 C0 316.24 0 160.48 0 0 Z " fill="#F6F6F6" transform="translate(0,0)"/>
<path d="M0 0 C1.19753906 -0.00644531 2.39507812 -0.01289062 3.62890625 -0.01953125 C14.08313234 0.10642328 22.39617888 2.36115522 30.1171875 9.62890625 C36.8657511 17.29227514 38.03050112 24.79296971 37.98852539 34.63793945 C37.98864593 35.55046321 37.98876646 36.46298697 37.98889065 37.40316296 C37.98814604 40.34822744 37.9805384 43.29322813 37.97265625 46.23828125 C37.97118543 48.06001759 37.97016558 49.88175436 37.96960449 51.70349121 C37.96436783 58.44816726 37.95040659 65.19283426 37.9375 71.9375 C37.916875 87.014375 37.89625 102.09125 37.875 117.625 C92.655 117.625 147.435 117.625 203.875 117.625 C203.75638227 87.75296992 203.75638227 87.75296992 203.60473633 57.88110352 C203.59118652 52.08190918 203.59118652 52.08190918 203.58866882 49.36045837 C203.5840852 47.47416557 203.57358219 45.58788114 203.55827332 43.7016449 C203.53615983 40.83162342 203.5332871 37.96213552 203.53442383 35.09204102 C203.5236295 34.26253465 203.51283518 33.43302828 203.50171375 32.57838535 C203.55052378 23.3079635 206.35493997 15.31404647 212.875 8.625 C221.94036554 1.41427715 229.15694373 0.26177652 240.5625 0.25 C241.79162109 0.22550781 243.02074219 0.20101562 244.28710938 0.17578125 C254.37520102 0.14349936 262.81631475 1.86384026 270.34375 8.9296875 C279.24592364 18.78566545 279.15724876 29.49169429 279 42.125 C278.98995069 43.53384781 278.98082829 44.94270255 278.97265625 46.3515625 C278.94919969 49.7762205 278.91637384 53.20051939 278.875 56.625 C280.25051025 56.5935791 280.25051025 56.5935791 281.65380859 56.56152344 C285.10183035 56.49278054 288.54910935 56.44292848 291.99755859 56.40527344 C293.48140048 56.38533019 294.96516555 56.3581651 296.44873047 56.32324219 C307.28606706 56.07477999 316.24140531 56.78063644 325.125 63.625 C331.73566896 70.01104265 335.11767353 77.44909652 335.44189453 86.60192871 C335.47426128 90.86375767 335.37673697 95.11536249 335.25 99.375 C335.21983791 101.15099604 335.19247321 102.92704189 335.16796875 104.703125 C335.1025229 109.01166883 334.99935738 113.31777053 334.875 117.625 C336.51698364 117.5935791 336.51698364 117.5935791 338.19213867 117.56152344 C342.2641078 117.48897291 346.33602011 117.44314591 350.40844727 117.40527344 C352.16896175 117.38519214 353.92940982 117.35792121 355.68969727 117.32324219 C358.22428802 117.27456888 360.75799495 117.25199695 363.29296875 117.234375 C364.07649216 117.21372986 364.86001556 117.19308472 365.6672821 117.17181396 C369.17668738 117.17038191 371.53126166 117.42361432 374.58232117 119.21113586 C377.65818583 122.44958308 377.50814737 124.27709795 377.52197266 128.70092773 C377.53073425 129.40549103 377.53949585 130.11005432 377.54852295 130.83596802 C377.570497 133.16080654 377.55597225 135.48373651 377.5390625 137.80859375 C377.54243165 139.42758041 377.5472851 141.04656459 377.55355835 142.6655426 C377.5609272 146.05762834 377.55022599 149.44905536 377.52685547 152.84106445 C377.49838947 157.18375661 377.51475628 161.52490229 377.54471779 165.8675375 C377.56281047 169.2108367 377.55702353 172.55377101 377.54407883 175.89708138 C377.54074903 177.49782559 377.54481697 179.09860318 377.55647659 180.6993084 C377.56921652 182.94031975 377.54976933 185.1788506 377.52197266 187.41967773 C377.51799469 188.69334702 377.51401672 189.9670163 377.50991821 191.27928162 C376.70390885 195.52656937 375.264158 197.01471397 371.875 199.625 C369.86906433 200.22627258 369.86906433 200.22627258 367.91088867 200.19262695 C366.80030342 200.19206047 366.80030342 200.19206047 365.6672821 200.19148254 C364.49199699 200.1527729 364.49199699 200.1527729 363.29296875 200.11328125 C362.47878983 200.10620651 361.6646109 200.09913177 360.82575989 200.09184265 C358.23705357 200.06395598 355.65054727 200.00123316 353.0625 199.9375 C351.30276572 199.9124095 349.54299737 199.88959764 347.78320312 199.86914062 C343.47962704 199.81414872 339.1776859 199.72791992 334.875 199.625 C334.90118408 200.68299805 334.92736816 201.74099609 334.9543457 202.83105469 C335.04585524 206.81179072 335.10260903 210.79243689 335.1496582 214.77392578 C335.17457583 216.48665069 335.20852329 218.19927181 335.25219727 219.91162109 C335.55231954 231.99419093 335.20750205 242.9443935 326.8125 252.5625 C317.28160896 260.92564451 306.10781195 261.29429159 294.125 260.9375 C292.63805893 260.91234986 291.15107621 260.8895487 289.6640625 260.86914062 C286.06682406 260.81475877 282.47119044 260.72887148 278.875 260.625 C278.89071045 261.4814209 278.9064209 262.3378418 278.92260742 263.22021484 C278.9742043 266.4444753 279.01157546 269.668523 279.03979492 272.89306641 C279.05473947 274.27985627 279.07510278 275.66660007 279.10131836 277.05322266 C279.31810391 288.82765367 278.61039514 298.3650134 270.8359375 307.6484375 C262.39003977 316.16163322 252.73560133 317.02878554 241.25 317.125 C239.43822266 317.186875 239.43822266 317.186875 237.58984375 317.25 C227.94538525 317.33305239 220.20198669 315.11483686 212.72802734 308.81542969 C202.39455231 297.99455227 203.33420255 285.29893708 203.484375 271.3046875 C203.49026546 269.46818528 203.49434042 267.63167632 203.49658203 265.79516602 C203.51744562 259.03000742 203.57329071 252.26499314 203.625 245.5 C203.7075 230.36125 203.79 215.2225 203.875 199.625 C149.095 199.625 94.315 199.625 37.875 199.625 C38.03312207 229.78115024 38.03312207 229.78115024 38.23535156 259.93701172 C38.25341797 265.79516602 38.25341797 265.79516602 38.2567749 268.54544067 C38.2628811 270.44920603 38.27687399 272.35295678 38.29730225 274.25662231 C38.43279627 287.55834602 38.53896812 298.60903625 28.9453125 308.8671875 C20.35057596 316.16460532 11.23925302 316.90177612 0.4375 317.0625 C-1.39458008 317.13114258 -1.39458008 317.13114258 -3.26367188 317.20117188 C-12.83334608 317.31830998 -20.7711581 315.2988229 -28.12402344 308.87988281 C-34.75132112 301.95938003 -37.26217321 292.99787692 -37.22265625 283.671875 C-37.2212413 283.01165344 -37.21982635 282.35143188 -37.21836853 281.67120361 C-37.21279245 279.57242206 -37.20024447 277.47374905 -37.1875 275.375 C-37.1824819 273.94791821 -37.17791954 272.52083475 -37.17382812 271.09375 C-37.16283088 267.60413168 -37.1455828 264.11457644 -37.125 260.625 C-38.07753662 260.64594727 -39.03007324 260.66689453 -40.01147461 260.68847656 C-43.58407238 260.76150123 -47.1566058 260.80702338 -50.72973633 260.84472656 C-52.26891211 260.86470121 -53.80801338 260.89189097 -55.34692383 260.92675781 C-71.86361087 261.29129359 -71.86361087 261.29129359 -79.125 256.625 C-79.93453125 256.10679687 -80.7440625 255.58859375 -81.578125 255.0546875 C-87.93716883 249.55273218 -91.81183519 242.97715638 -93.125 234.625 C-93.20680692 231.90074169 -93.24165566 229.20368694 -93.22265625 226.48046875 C-93.2212413 225.71068192 -93.21982635 224.94089508 -93.21836853 224.14778137 C-93.21279606 221.70264712 -93.20024871 219.25760632 -93.1875 216.8125 C-93.18248144 215.14908987 -93.17791915 213.4856783 -93.17382812 211.82226562 C-93.16283566 207.75647472 -93.1455901 203.69075317 -93.125 199.625 C-94.82027832 199.66427612 -94.82027832 199.66427612 -96.54980469 199.7043457 C-100.74654308 199.79490714 -104.94319531 199.85227031 -109.140625 199.8996582 C-110.95652799 199.924789 -112.77232996 199.95889961 -114.58789062 200.00219727 C-117.19947223 200.06291511 -119.80971594 200.09122281 -122.421875 200.11328125 C-123.23243347 200.13908768 -124.04299194 200.1648941 -124.87811279 200.19148254 C-128.57837952 200.19332008 -130.5912256 200.12769703 -133.33905029 197.53985596 C-135.56227304 193.91132485 -135.63198202 191.6605181 -135.64257812 187.41967773 C-135.6495874 186.71336212 -135.65659668 186.00704651 -135.66381836 185.27932739 C-135.68135797 182.95534418 -135.66979248 180.63258833 -135.65625 178.30859375 C-135.6589458 176.68864204 -135.66282896 175.06869191 -135.66784668 173.44874573 C-135.67373596 170.05852813 -135.66519643 166.66873286 -135.64648438 163.27856445 C-135.62367644 158.93487471 -135.63683244 154.5921726 -135.66077423 150.24851894 C-135.67523236 146.90530461 -135.67062658 143.56232426 -135.66026306 140.21910286 C-135.65759674 138.61753281 -135.66086226 137.01594144 -135.67018127 135.41439629 C-135.68034975 133.17600125 -135.66484539 130.93920384 -135.64257812 128.70092773 C-135.63780457 126.7916172 -135.63780457 126.7916172 -135.63293457 124.84373474 C-135.125 121.625 -135.125 121.625 -133.33905029 119.21113586 C-129.93111218 116.76970403 -126.44971779 117.13178476 -122.421875 117.234375 C-121.58408508 117.24003479 -120.74629517 117.24569458 -119.88311768 117.25152588 C-117.21315834 117.27387671 -114.54455213 117.32406902 -111.875 117.375 C-110.06251941 117.39506675 -108.25001774 117.41331722 -106.4375 117.4296875 C-101.99948041 117.47373706 -97.56246944 117.54275434 -93.125 117.625 C-93.1564209 116.53670898 -93.1878418 115.44841797 -93.22021484 114.32714844 C-93.32997814 110.23468405 -93.39811195 106.14234555 -93.45458984 102.04882812 C-93.4845022 100.28753684 -93.52524866 98.5263911 -93.57763672 96.765625 C-93.9306385 84.58360275 -93.52337757 74.65506012 -84.86474609 65.14160156 C-77.30769878 57.71193002 -70.19200021 56.30923742 -59.92709351 56.33824158 C-57.65949204 56.36165768 -55.39239396 56.39918803 -53.125 56.4375 C-51.57162752 56.45257027 -50.01824094 56.46625454 -48.46484375 56.47851562 C-44.68454385 56.51134503 -40.90492937 56.56299746 -37.125 56.625 C-37.1564209 55.24948975 -37.1564209 55.24948975 -37.18847656 53.84619141 C-37.25721946 50.39816965 -37.30707152 46.95089065 -37.34472656 43.50244141 C-37.36466981 42.01859952 -37.3918349 40.53483445 -37.42675781 39.05126953 C-37.69613074 27.30185637 -36.76424324 17.33281489 -28.27294922 8.43408203 C-19.70445716 1.21738208 -10.89807803 -0.29518088 0 0 Z " fill="#040404" transform="translate(186.125,83.375)"/>
<path d="M0 0 C1.13308594 -0.02900391 2.26617187 -0.05800781 3.43359375 -0.08789062 C9.85160923 -0.13679696 13.92246182 -0.09734769 18.75 4.3125 C22.1873396 8.21434495 23.87270378 10.51927481 23.88422108 15.69326305 C23.88867892 16.61951148 23.89313676 17.54575991 23.89772969 18.50007647 C23.89754533 19.5244682 23.89736097 20.54885992 23.89717102 21.60429382 C23.90084771 22.68728864 23.9045244 23.77028346 23.9083125 24.8860963 C23.91938491 28.53954742 23.9231992 32.19297013 23.92700195 35.84643555 C23.93326392 38.45603018 23.93991048 41.06562392 23.94691467 43.67521667 C23.96669023 51.52468459 23.97674722 59.37415381 23.98564246 67.22364041 C23.99002407 70.91912735 23.99539125 74.61461285 24.00063133 78.31009865 C24.01764562 90.59351523 24.03213966 102.87693092 24.03938007 115.16035748 C24.04129001 118.34901111 24.04321033 121.53766475 24.04516602 124.72631836 C24.04564976 125.51885471 24.0461335 126.31139107 24.0466319 127.12794367 C24.05493164 139.96565374 24.08026668 152.8032706 24.11274669 165.64093997 C24.14581407 178.81811358 24.16382859 191.99523982 24.16702431 205.17245513 C24.16918985 212.57216373 24.17794456 219.97173647 24.20348549 227.37140465 C24.22745696 234.33252463 24.23102014 241.29339632 24.22072411 248.25454903 C24.22022738 250.81074714 24.22658798 253.3669571 24.24028015 255.92311859 C24.25791873 259.41097034 24.25093147 262.89793626 24.23774719 266.38578796 C24.24871644 267.39902608 24.25968568 268.4122642 24.27098733 269.4562065 C24.21470378 275.61715317 23.39625996 279.29111609 19.75 284.3125 C13.71048403 289.21413615 7.73873643 288.91805019 0.1875 288.8125 C-0.92302734 288.82796875 -2.03355469 288.8434375 -3.17773438 288.859375 C-9.49396535 288.82913571 -13.48617078 288.60466296 -18.25 284.3125 C-21.68849442 280.40934417 -23.37270793 278.10455721 -23.38422108 272.92894363 C-23.38867892 272.00207851 -23.39313676 271.07521338 -23.39772969 270.12026143 C-23.39754533 269.09518759 -23.39736097 268.07011374 -23.39717102 267.01397705 C-23.40084771 265.93027667 -23.4045244 264.84657629 -23.4083125 263.7300365 C-23.41938485 260.0742514 -23.42319918 256.41849469 -23.42700195 252.76269531 C-23.43326389 250.15147816 -23.43991044 247.5402619 -23.44691467 244.92904663 C-23.46668943 237.07513462 -23.47674673 229.2212213 -23.48564246 221.36729062 C-23.49002385 217.6701805 -23.49539106 213.97307181 -23.50063133 210.27596283 C-23.51764489 197.98825503 -23.5321394 185.70054813 -23.53938007 173.41283035 C-23.54129002 170.22313689 -23.54321034 167.03344343 -23.54516602 163.84375 C-23.54564976 163.05095134 -23.5461335 162.25815267 -23.5466319 161.44132981 C-23.55493344 148.5964777 -23.58027185 135.75171868 -23.61274669 122.90690723 C-23.64580478 109.72408839 -23.66382771 96.54131688 -23.66702431 83.35845637 C-23.66919062 75.95486732 -23.67795666 68.55141399 -23.70348549 61.1478653 C-23.72744149 54.18428612 -23.73102601 47.22095513 -23.72072411 40.25734329 C-23.72022703 37.69911258 -23.72659759 35.1408701 -23.74028015 32.58267593 C-23.75789541 29.09447374 -23.75094313 25.60715934 -23.73774719 22.11895752 C-23.74871644 21.10280656 -23.75968568 20.0866556 -23.77098733 19.03971219 C-23.71824555 13.27869495 -23.16871007 9.84750835 -19.25 5.3125 C-12.86588259 -0.31160343 -8.27549875 0.06965908 0 0 Z " fill="#F6F6F6" transform="translate(186.25,97.6875)"/>
<path d="M0 0 C1.11503906 -0.00257812 2.23007812 -0.00515625 3.37890625 -0.0078125 C9.9606677 0.07063519 15.11514965 0.34027034 20.14453125 5.03515625 C23.12670417 8.93492083 24.62381118 10.97701315 24.63142776 15.84952831 C24.63526891 16.76880995 24.63911005 17.68809159 24.6430676 18.63523024 C24.64220112 19.65184007 24.64133463 20.6684499 24.64044189 21.71586609 C24.64341302 22.7906938 24.64638414 23.86552151 24.6494453 24.97291976 C24.65816342 28.59873485 24.65964317 32.22451704 24.66113281 35.8503418 C24.66575883 38.44023205 24.67078319 41.03012161 24.67617798 43.62001038 C24.68977338 50.67385427 24.69578819 57.72769249 24.70018864 64.78154731 C24.70294962 69.18544431 24.70718676 73.58933912 24.71169281 77.99323463 C24.72388818 90.18400656 24.73418623 102.37477672 24.7375679 114.56555462 C24.73789725 115.73648191 24.73789725 115.73648191 24.73823325 116.9310643 C24.73856067 118.10481708 24.73856067 118.10481708 24.7388947 119.30228204 C24.73933817 120.88796342 24.73978473 122.47364479 24.74023438 124.05932617 C24.7404558 124.8458813 24.74067723 125.63243642 24.74090537 126.44282655 C24.74485208 139.18352053 24.762301 151.92415728 24.7855939 164.66482916 C24.80931012 177.74256207 24.82176991 190.82026627 24.82293582 203.89802104 C24.82385255 211.24181121 24.82960411 218.58552685 24.84775543 225.92929649 C24.86477063 232.83785791 24.86640695 239.74627569 24.85761642 246.65485191 C24.85684432 249.19169493 24.86121147 251.72854546 24.87107468 254.26536942 C24.88374421 257.72682115 24.87794403 261.18776774 24.86749268 264.6492157 C24.87554908 265.65467192 24.88360548 266.66012814 24.89190602 267.69605273 C24.84722882 274.0169097 24.28792335 279.26194319 20 284.2421875 C13.5678253 289.09981944 8.12079652 288.83982981 0.3125 289 C-0.79931641 289.05414063 -1.91113281 289.10828125 -3.05664062 289.1640625 C-8.85148116 289.26012854 -12.64630302 289.04941783 -17.17578125 285.21875 C-20.11972106 282.2987766 -22.26850406 279.50888399 -22.75299966 275.30451024 C-22.75440851 274.50123669 -22.75581736 273.69796314 -22.75726891 272.87034798 C-22.7637178 271.93950075 -22.77016669 271.00865353 -22.776811 270.04959881 C-22.7737138 269.03035065 -22.7706166 268.01110249 -22.76742554 266.96096802 C-22.77195665 265.87555879 -22.77648776 264.79014955 -22.78115618 263.67184913 C-22.79385145 260.02223808 -22.7921765 256.37277527 -22.79052734 252.72314453 C-22.79650936 250.11163134 -22.80331415 247.50011992 -22.81088257 244.88861084 C-22.82749838 238.52368955 -22.83299237 232.15880531 -22.83410732 225.79386415 C-22.8350575 220.62047351 -22.83916624 215.44709511 -22.84550858 210.27370834 C-22.86312235 195.60794615 -22.8723472 180.94221324 -22.87084763 166.2764404 C-22.87076772 165.48573753 -22.8706878 164.69503466 -22.87060547 163.88037109 C-22.87052371 163.08870343 -22.87044195 162.29703577 -22.87035771 161.48137818 C-22.8695447 148.64958043 -22.8886856 135.81790002 -22.9168822 122.98613621 C-22.94560223 109.81228766 -22.95942299 96.63849636 -22.95769465 83.4646157 C-22.95703045 76.06777165 -22.96253559 68.67105064 -22.98405075 61.27423477 C-23.00415226 54.31882489 -23.00359787 47.36367912 -22.98901749 40.40825653 C-22.986921 37.85325365 -22.99167993 35.29823472 -23.0037384 32.74325943 C-23.01911726 29.25953073 -23.00993042 25.77670772 -22.99447632 22.29299927 C-23.00476344 21.27821255 -23.01505057 20.26342583 -23.02564943 19.217888 C-22.95259912 11.78336921 -20.91266637 8.27914734 -16.03125 2.65625 C-11.42427518 -0.95524785 -5.56010054 -0.14141296 0 0 Z " fill="#F6F6F6" transform="translate(426.5,97.5)"/>
<path d="M0 0 C54.78 0 109.56 0 166 0 C166 17.82 166 35.64 166 54 C111.22 54 56.44 54 0 54 C0 36.18 0 18.36 0 0 Z " fill="#F7F7F7" transform="translate(224,215)"/>
<path d="M0 0 C0 58.08 0 116.16 0 176 C-32 176 -32 176 -39 171 C-42.02261975 167.1954077 -42.37866136 164.32418411 -42.39440918 159.52346802 C-42.40575897 158.21410278 -42.41710876 156.90473755 -42.42880249 155.55569458 C-42.42615935 154.11151062 -42.42318815 152.66732722 -42.41992188 151.22314453 C-42.42726415 149.69683206 -42.43585085 148.17052515 -42.44558716 146.64422607 C-42.46779627 142.50363911 -42.47073412 138.3632512 -42.46883965 134.22261286 C-42.46871991 130.76342691 -42.47728551 127.30428308 -42.48561716 123.84510887 C-42.50484938 115.68235517 -42.50773585 107.51970374 -42.50097656 99.35693359 C-42.4943369 90.94245723 -42.51719735 82.52841935 -42.55429029 74.11403191 C-42.58500257 66.88413186 -42.59634564 59.65437276 -42.59245348 52.42440879 C-42.5903874 48.10875419 -42.59584298 43.79344076 -42.62034607 39.47784805 C-42.64263591 35.41796657 -42.64071737 31.35879701 -42.62041855 27.29891205 C-42.6170123 25.8118395 -42.62208113 24.32471882 -42.63640213 22.83771133 C-42.74945734 10.22501616 -42.74945734 10.22501616 -39.77404785 5.74777222 C-28.07807169 -5.83742027 -20.75975989 0 0 0 Z " fill="#F6F6F6" transform="translate(149,154)"/>
<path d="M0 0 C31 0 31 0 38 4 C43.66610952 9.96855011 42.56445146 19.10900741 42.51757812 26.734375 C42.52300541 28.22009973 42.53013147 29.70581907 42.53881836 31.19152832 C42.5569828 35.20812798 42.55001291 39.22431456 42.53730202 43.24092102 C42.5271385 47.45457022 42.53657697 51.66818527 42.54284668 55.88183594 C42.55011336 62.95644446 42.54056118 70.03088566 42.52148438 77.10546875 C42.49971744 85.27171615 42.50676951 93.43756401 42.52879 101.60380173 C42.546972 108.62911766 42.54948867 115.65431367 42.53903532 122.67964554 C42.53281574 126.86946405 42.53192227 131.05909508 42.54518127 135.24890137 C42.55678009 139.18894551 42.54864123 143.12847711 42.52560425 147.06846619 C42.52033855 148.50995535 42.52179414 149.95148804 42.53065491 151.39295959 C42.6184622 167.13501761 42.6184622 167.13501761 38 172 C31 176 31 176 0 176 C0 117.92 0 59.84 0 0 Z " fill="#F6F6F6" transform="translate(465,154)"/>
<path d="M0 0 C9.24 0 18.48 0 28 0 C28 17.82 28 35.64 28 54 C18.76 54 9.52 54 0 54 C0 36.18 0 18.36 0 0 Z " fill="#F7F7F7" transform="translate(521,215)"/>
<path d="M0 0 C9.24 0 18.48 0 28 0 C28 17.82 28 35.64 28 54 C18.76 54 9.52 54 0 54 C0 36.18 0 18.36 0 0 Z " fill="#F7F7F7" transform="translate(65,215)"/>
</svg>
